<?xml version="1.0" encoding="utf-8"?>
<!-- Generator: Adobe Illustrator 18.1.1, SVG Export Plug-In . SVG Version: 6.00 Build 0)  -->
<svg version="1.1" id="Forma_1_1_" xmlns="http://www.w3.org/2000/svg" xmlns:xlink="http://www.w3.org/1999/xlink" x="0px" y="0px"
	 viewBox="0 0 54 52" enable-background="new 0 0 54 52" xml:space="preserve">
<g id="Forma_1">
	<g>
		<path d="M53.5,0.2c-0.3-0.2-0.7-0.2-1,0L36,8.9L19.5,0.2c0,0,0,0,0,0c0,0-0.1,0-0.1-0.1c0,0-0.1,0-0.1,0c-0.1,0-0.1,0-0.2,0
			c0,0,0,0-0.1,0c-0.1,0-0.1,0-0.2,0c0,0-0.1,0-0.1,0c0,0,0,0,0,0l-18,6C0.3,6.2,0,6.6,0,7v43c0,0.3,0.2,0.6,0.4,0.8
			C0.6,50.9,0.8,51,1,51c0.1,0,0.2,0,0.3-0.1L19,45.1l16.7,6.9c0,0,0,0,0,0c0.1,0,0.2,0.1,0.3,0.1c0.1,0,0.2,0,0.3,0
			c0,0,0.1,0,0.1,0c0,0,0.1,0,0.1,0l17-9c0.3-0.2,0.5-0.5,0.5-0.9V1C54,0.7,53.8,0.4,53.5,0.2z M18,29.4c-0.4,0.1-0.9,0.2-1.3,0.3
			c-0.5,0.1-0.9,0.7-0.7,1.2c0.1,0.4,0.5,0.7,1,0.7c0.1,0,0.2,0,0.3,0c0.2-0.1,0.5-0.1,0.8-0.1v11.8L2,48.6V7.8l16-5.3V29.4z
			 M35,49.5l-15-6.2V31.2c0.3,0,0.6-0.1,1-0.1c0.6,0,1-0.5,1-1c0-0.5-0.5-1-1-1h0c-0.3,0-0.6,0-0.9,0V2.7l15,7.9v21.2
			c-0.7,0-1.4-0.1-2.2-0.3c-0.5-0.1-1.1,0.2-1.2,0.8c-0.1,0.5,0.3,1.1,0.8,1.2c0.9,0.2,1.7,0.3,2.6,0.3V49.5z M52,41.4l-15,7.9V33.7
			c0.4-0.2,0.6-0.5,0.6-1c0-0.4-0.3-0.7-0.6-0.8V10.6l15-7.9V41.4z M10,17.9V20c0,0.6,0.4,1,1,1s1-0.4,1-1v-2.1c2.3-0.5,4-2.5,4-4.9
			c0-2.8-2.2-5-5-5s-5,2.2-5,5C6,15.4,7.7,17.5,10,17.9z M11,10c1.7,0,3,1.3,3,3c0,1.7-1.3,3-3,3s-3-1.3-3-3C8,11.4,9.3,10,11,10z
			 M45.1,26.7c0.1,0,0.2,0.1,0.4,0.1c0.4,0,0.8-0.2,0.9-0.6c0.5-1.2,0.8-2.6,1.1-4c0.1-0.5-0.3-1.1-0.8-1.2
			c-0.5-0.1-1.1,0.3-1.2,0.8c-0.3,1.3-0.6,2.6-1,3.7C44.3,25.9,44.6,26.5,45.1,26.7z M12.8,31.4c-1.2,0.8-2.3,1.7-3.2,2.8
			c-0.4,0.4-0.3,1.1,0.1,1.4c0.2,0.2,0.4,0.2,0.6,0.2c0.3,0,0.6-0.1,0.8-0.4c0.8-1,1.7-1.8,2.8-2.4c0.5-0.3,0.6-0.9,0.3-1.4
			C13.9,31.2,13.3,31.1,12.8,31.4z M8.6,37.3c-0.5-0.2-1.1,0-1.3,0.5c-1,2.2-1.3,4-1.3,4.1c-0.1,0.5,0.3,1,0.9,1.1c0,0,0.1,0,0.1,0
			c0.5,0,0.9-0.4,1-0.9c0,0,0.2-1.6,1.1-3.5C9.3,38.1,9.1,37.5,8.6,37.3z M40.4,32.7c0.2,0,0.3,0,0.5-0.1c1.3-0.7,2.4-1.6,3.4-2.8
			c0.3-0.4,0.3-1.1-0.2-1.4c-0.4-0.3-1.1-0.3-1.4,0.2c-0.8,1-1.7,1.7-2.7,2.3c-0.5,0.3-0.7,0.9-0.4,1.3
			C39.7,32.5,40.1,32.7,40.4,32.7z M29.2,30.5c-0.4-0.2-0.7-0.3-0.7-0.3c-0.1,0-0.1-0.1-0.2-0.1c-1.1-0.3-2.2-0.5-3.2-0.7
			c-0.5-0.1-1.1,0.3-1.1,0.8c-0.1,0.5,0.3,1.1,0.8,1.1c0.9,0.1,1.9,0.3,2.9,0.6c0.1,0.1,0.4,0.2,0.7,0.3c0.1,0.1,0.3,0.1,0.4,0.1
			c0.4,0,0.8-0.2,0.9-0.6C29.9,31.2,29.7,30.7,29.2,30.5z M46.9,19C46.9,19,47,19,46.9,19c0.6,0,1-0.4,1.1-0.9c0.1-1,0.1-2,0.1-3
			c0-0.3,0-0.7,0-1.1c0-0.6-0.5-1-1-1c-0.6,0-1,0.5-1,1c0,0.3,0,0.7,0,1c0,1,0,2-0.1,2.9C46,18.5,46.4,18.9,46.9,19z M8.3,27.7
			C8.5,27.9,8.7,28,9,28s0.5-0.1,0.7-0.3l1.3-1.3l1.3,1.3c0.2,0.2,0.5,0.3,0.7,0.3s0.5-0.1,0.7-0.3c0.4-0.4,0.4-1,0-1.4L12.4,25
			l1.3-1.3c0.4-0.4,0.4-1,0-1.4c-0.4-0.4-1-0.4-1.4,0L11,23.6l-1.3-1.3c-0.4-0.4-1-0.4-1.4,0c-0.4,0.4-0.4,1,0,1.4L9.6,25l-1.3,1.3
			C7.9,26.7,7.9,27.3,8.3,27.7z"/>
	</g>
</g>
</svg>
